<?xml version="1.0" encoding="utf-8"?>
<!-- Generator: Adobe Illustrator 23.0.3, SVG Export Plug-In . SVG Version: 6.00 Build 0)  -->
<svg version="1.1" id="Camada_1" xmlns="http://www.w3.org/2000/svg" xmlns:xlink="http://www.w3.org/1999/xlink" x="0px" y="0px"
	 viewBox="0 0 24 10" style="enable-background:new 0 0 24 10;" xml:space="preserve">
<path d="M23,2H1C0.4,2,0,1.6,0,1v0c0-0.6,0.4-1,1-1h22c0.6,0,1,0.4,1,1v0C24,1.6,23.6,2,23,2z"/>
<path d="M23,6H1C0.4,6,0,5.6,0,5v0c0-0.6,0.4-1,1-1h22c0.6,0,1,0.4,1,1v0C24,5.6,23.6,6,23,6z"/>
<path d="M23,10H8c-0.6,0-1-0.4-1-1v0c0-0.6,0.4-1,1-1h15c0.6,0,1,0.4,1,1v0C24,9.6,23.6,10,23,10z"/>
</svg>
